<svg id="Capa_1" enable-background="new 0 0 512.001 512.001" height="512" viewBox="0 0 512.001 512.001" width="512" xmlns="http://www.w3.org/2000/svg"><g><circle cx="256" cy="256" fill="#8fe26a" r="256"/><path d="m343.565 238.437-64.141-65.512-127.664 124.993-66.594 20.651 188.771 192.805c117.638-8.134 213.723-95.897 234.069-210.212l-85.409-87.234z" fill="#58b354"/><g><path d="m268.447 189.737c-7.296-4.002-16.109-4.095-23.489-.248l-98.752 43.52-.807 76.345 66.631.705c4.362-20.123 22.373-35.099 43.768-34.873s39.086 15.58 43.021 35.791l66.631.705.807-76.345z" fill="#3440da"/><circle cx="145.846" cy="267.116" fill="#5f69e2" r="79.354"/><circle cx="145.846" cy="267.116" fill="#f6df5a" r="59.214"/><circle cx="256.66" cy="193.597" fill="#7c83e7" r="30.678"/><path d="m298.818 310.977 66.631.705.807-76.345-97.809-45.598c-3.648-2.001-7.676-3.025-11.713-3.067l-.936 88.516c21.394.224 39.085 15.578 43.02 35.789z" fill="#1c259d"/><path d="m287.336 193.922c-.179 16.942-14.058 30.531-31 30.351l.649-61.352c16.941.18 30.53 14.059 30.351 31.001z" fill="#3440da"/><circle cx="365.895" cy="269.443" fill="#3440da" r="79.354"/><circle cx="365.895" cy="269.443" fill="#f6df5a" r="59.214"/><g><circle cx="256.66" cy="193.597" fill="#5f69e2" r="18.759"/><path d="m275.418 193.796c-.11 10.36-8.596 18.669-18.956 18.559l.397-37.515c10.359.109 18.668 8.596 18.559 18.956z" fill="#2633d7"/></g></g></g></svg>