<svg id="Capa_1" enable-background="new 0 0 512 512" height="512" viewBox="0 0 512 512" width="512" xmlns="http://www.w3.org/2000/svg"><g><g><g><g><g><g><g><g><g><g><g><g><g><circle cx="256" cy="256" fill="#ffe670" r="256"/></g></g></g></g></g></g></g></g></g></g></g></g><path d="m507.71 302.837-211.885-211.885-192.659 284.375 46.167 46.167-19.935 16.051 67.614 67.614c18.938 4.466 38.685 6.841 58.988 6.841 125.386 0 229.703-90.148 251.71-209.163z" fill="#fcd32b"/><path d="m256 74.456c-31.105 0-56.321 25.216-56.321 56.321v71.078l-46.935 12.669c-10.709 2.891-19.184 11.079-22.442 21.682l-33.368 108.611c-4.563 14.853 2.104 30.85 15.866 38.065l70.122 36.763h73.078l26-153.645z" fill="#00347b"/><path d="m256 74.456c31.105 0 56.321 25.216 56.321 56.321v71.078l46.935 12.669c10.709 2.891 19.184 11.079 22.442 21.682l33.369 108.611c4.563 14.853-2.104 30.85-15.866 38.065l-70.122 36.763h-73.079z" fill="#002659"/><g><path d="m256.269 157.838h-42.969v21.417c0 23.731 19.238 42.969 42.969 42.969l13.159-48.19z" fill="#f1ba87"/><path d="m256.269 157.838v64.386c23.731 0 42.969-19.238 42.969-42.969v-21.417z" fill="#f9a58d"/></g><path d="m140.315 273.54h231.907v139.331h-231.907z" fill="#e2e1f4"/><path d="m129.398 412.871h259.945v24.673h-259.945z" fill="#0051be"/><path d="m256.014 273.54h116.208v139.331h-116.208z" fill="#c0bcdf"/><g><g><path d="m213.3 343.08c0-23.731 19.238-42.969 42.969-42.969l20.724 38.948-20.724 37.091-42.969-17.101z" fill="#00347b"/><path d="m226.155 332.741v60.228h30.114l11.274-35.047-11.274-25.181z" fill="#00347b"/><path d="m256.269 300.111c23.731 0 42.969 19.238 42.969 42.969v15.969l-42.969 17.101z" fill="#002659"/><path d="m256.269 332.741h30.114v60.228h-30.114z" fill="#002659"/><g><path d="m252.36 341.36c0 7.36-5.966 13.327-13.327 13.327-7.36 0-13.327-5.967-13.327-13.327v-13.327z" fill="#5ecdf3"/><path d="m260.177 341.36c0 7.36 5.967 13.327 13.327 13.327s13.327-5.967 13.327-13.327v-13.327z" fill="#0fa8dc"/></g><path d="m256.269 366.689h-7.804l7.804-15.607 2.528 10.808z" fill="#5ecdf3"/><path d="m264.073 366.689h-7.804v-15.607z" fill="#0fa8dc"/></g><path d="m256.269 384.229h-21.795v-10.814h21.795l7.21 5.407z" fill="#5ecdf3"/><path d="m256.269 373.415h21.795v10.814h-21.795z" fill="#0fa8dc"/></g><path d="m256 412.871h133.342v24.673h-133.342z" fill="#00347b"/></g></svg>