<svg id="Capa_1" enable-background="new 0 0 512 512" height="512" viewBox="0 0 512 512" width="512" xmlns="http://www.w3.org/2000/svg"><g><circle cx="256" cy="256" fill="#ff6426" r="256"/><circle cx="256" cy="256" fill="#ff6426" r="256"/><path d="m108.122 403.878 104.433 104.433c14.123 2.415 28.634 3.689 43.445 3.689 141.385 0 256-114.615 256-256 0-14.813-1.274-29.327-3.689-43.451l-104.43-104.43z" fill="#ff4c04"/><g><path d="m108.12 108.119h295.761v295.762h-295.761z" fill="#f6df5a" transform="matrix(0 1 -1 0 512 0)"/><path d="m182.06 182.059h295.761v147.881h-295.761z" fill="#edb943" transform="matrix(0 1 -1 0 585.941 -73.941)"/><path d="m126.088 126.088h259.824v259.824h-259.824z" fill="#fff"/><path d="m256 126.088h129.912v259.824h-129.912z" fill="#dceaec"/><path d="m249.014 216.222h-59.814l29.907-59.813z" fill="#8e4813"/><path d="m193.919 385.912h-50v-31.166c0-61.802 50.28-112.081 112.082-112.081 34.231 0 62.081-27.85 62.081-62.081v-54.495h50v54.495c0 61.802-50.279 112.081-112.081 112.081-34.232 0-62.082 27.85-62.082 62.081z" fill="#7c83e7"/><g><path d="m284.116 326.947h15v46.152h-15z" fill="#8e4813"/></g><g><path d="m360.937 298.459h15v46.152h-15z" fill="#8e4813"/></g><g><path d="m327.516 342.35h15v31.5h-15z" fill="#8e4813"/></g><g fill="#58b354"><circle cx="291.616" cy="326.947" r="23.827"/><path d="m385.912 272.572c-4.82-3.768-10.883-6.019-17.475-6.019-15.689 0-28.407 12.718-28.407 28.407s12.718 28.407 28.407 28.407c6.592 0 12.655-2.252 17.475-6.02z"/><circle cx="335.016" cy="341.757" r="14.06"/><path d="m196.98 245.849h-30.225c0-8.346 6.766-15.112 15.112-15.112 8.347 0 15.113 6.766 15.113 15.112z"/></g><path d="m174.832 245.849h-23.827c0-6.58 5.334-11.914 11.914-11.914s11.913 5.335 11.913 11.914z" fill="#8fe26a"/><path d="m219.107 216.222h-82l41-82z" fill="#bb5f19"/><path d="m318.081 180.583c0 34.231-27.85 62.081-62.081 62.081v50c61.802 0 112.081-50.279 112.081-112.081v-54.495h-50z" fill="#515bdf"/></g></g></svg>