<svg id="Capa_1" enable-background="new 0 0 512 512" height="512" viewBox="0 0 512 512" width="512" xmlns="http://www.w3.org/2000/svg"><g><g><g><g><g><g><g><g><g><g><circle cx="256" cy="256" fill="#42db8f" r="256"/></g></g></g></g></g></g></g></g></g><path d="m241.097 58.445 14.903 19.794-10 48.607 34.78 34.78-14.034 14.034-142.686 270.401 53.764 53.764c24.645 7.896 50.909 12.175 78.176 12.175 132.887 0 242.116-101.255 254.767-230.82l-236.973-236.973z" fill="#0acb72"/><path d="m256 56.825 7-9.995-7-10.005c-13.882 0-25.176 11.294-25.176 25.176 0 10.33 6.256 19.222 15.176 23.099v41.746h10l7-34.189-7-25.48c-2.854 0-5.176-2.322-5.176-5.176s2.322-5.176 5.176-5.176z" fill="#ff6c52"/><path d="m266 107.779v-22.679c8.92-3.877 15.176-12.769 15.176-23.099 0-13.882-11.294-25.176-25.176-25.176v20c2.854 0 5.176 2.322 5.176 5.176s-2.322 5.176-5.176 5.176v59.669c18.564 0 33.667 15.103 33.667 33.666s-15.103 33.667-33.667 33.667v20c29.592 0 53.667-24.075 53.667-53.667 0-26.175-18.838-48.033-43.667-52.733z" fill="#ff432e"/><g><g><g><g><path d="m256 156.066-24.214 101.223 24.214 141.521 131.94-155.733z" fill="#002659"/></g></g><path d="m256 156.066-131.94 87.011 131.94 155.733z" fill="#00347b"/></g><path d="m154.578 150.01h202.844v194.489h-202.844z" fill="#0051be"/><path d="m256 150.01h101.422v194.489h-101.422z" fill="#00347b"/><g><path d="m124.06 446.061v-202.984l131.94 106.174z" fill="#fff"/><path d="m387.94 446.061-131.94-96.81 131.94-106.174z" fill="#e2e1f4"/><path d="m256 335.5 17.092.003 114.848 110.558h-131.94l-27.1-39.629z" fill="#c0bcdf"/><path d="m256 335.5v110.561h-131.94l114.851-110.561z" fill="#e2e1f4"/></g><g><path d="m257.887 244.133h-75.621v-15h75.621l8.88 7.5z" fill="#fff"/></g><g><path d="m256.048 275.14h-73.782v-15h73.782l10.719 7.5z" fill="#fff"/></g><g><path d="m256 229.133h73.83v15h-73.83z" fill="#e2e1f4"/></g><g><path d="m256 260.14h73.83v15h-73.83z" fill="#e2e1f4"/></g><path d="m237.241 188.454c-8.985-6.052-14.908-16.318-14.908-27.942h8.491l-28.491-28.606v28.606c0 20.269 11.298 37.946 27.924 47.075z" fill="#ff6c52"/></g></g></svg>