<svg id="Capa_1" enable-background="new 0 0 512 512" height="512" viewBox="0 0 512 512" width="512" xmlns="http://www.w3.org/2000/svg"><g><g><g><g><g><g><g><g><g><g><g><g><g><circle cx="256" cy="256" fill="#0051be" r="256"/></g></g></g></g></g></g></g></g></g></g></g></g><path d="m412.494 129.005-40.905-40.905-14.776 22.639 33.764 33.764-229.642 162.378-52.157-52.157-65.67 19.003 68.226 68.226-42.903 30.337 134.1 134.1c17.247 3.666 35.13 5.61 53.469 5.61 141.385 0 256-114.615 256-256 0-13.237-1.005-26.238-2.942-38.933l-91.583-91.583z" fill="#00347b"/><g><path d="m73.932 277.985h-21.199c-7.183 0-13.006-5.823-13.006-13.006s5.823-13.006 13.006-13.006h21.199l13.006 13.006z" fill="#ffe670"/></g><path d="m73.932 251.973h26.012v26.012h-26.012z" fill="#fcd32b"/><g><g><g><path d="m256 339.417-161.475 3.75v-217.683h161.475l64.638 116.516z" fill="#fff"/><g><path d="m256 125.484h161.475v217.684h-161.475z" fill="#e2e1f4"/></g><path d="m256 343.799h-135.495v-191.732h135.495l73.406 98.197z" fill="#00347b"/><path d="m256 152.067h135.495v191.732h-135.495z" fill="#002659"/><path d="m229.303 336.18h-168.293v19.04c0 12.866 10.43 23.296 23.296 23.296h171.694l18.126-21.168-18.126-8.472z" fill="#e2e1f4"/><path d="m450.99 336.18h-168.293l-26.697 12.696v29.64h171.694c12.866 0 23.296-10.43 23.296-23.296z" fill="#c0bcdf"/><path d="m256 348.876h-26.697v-12.696h26.697l4.249 6.348z" fill="#0051be"/><path d="m256 336.18h26.697v12.696h-26.697z" fill="#00347b"/></g></g><path d="m256 143.991h-10.525v-10.047h10.525l5.262 5.023z" fill="#bdeaf9"/><path d="m256 133.944h10.525v10.047h-10.525z" fill="#5ecdf3"/></g><path d="m137.54 251.973h26.012l13.006 13.595-13.006 12.417h-26.012z" fill="#ffe670"/><path d="m163.552 225.961v26.012l13.006 13.006 13.006-13.006v-26.012l-13.006-13.006z" fill="#ffe670"/><path d="m189.564 199.948h26.013l13.006 13.007-13.006 13.006h-26.013l-13.006-13.006z" fill="#ffe670"/><g fill="#fcd32b"><path d="m163.552 199.948h26.012v26.012h-26.012z"/><path d="m215.577 199.948h26.012v26.012h-26.012z"/><path d="m163.552 251.973h26.012v26.012h-26.012z"/></g><g fill="#ff9e22"><path d="m296.603 199.948h26.012v26.013l-13.006 13.006-13.006-13.006-13.006-13.006z"/><path d="m296.603 251.973 13.006-13.006 13.006 13.006v26.012l-13.006 13.007-13.006-13.007z"/><path d="m322.615 303.998h26.491l13.006-13.006-13.006-13.007h-26.491l-13.006 13.007z"/><path d="m362.112 238.967 13.006 13.006v26.012l-13.006 13.007-13.006-13.007v-26.012z"/><path d="m349.106 199.948 13.006-13.006 13.006 13.006v26.013l-13.006 13.006-13.006-13.006z"/><path d="m349.106 147.924v26.012l13.006 13.006 13.006-13.006v-26.012l-13.006-13.006z"/></g><g><path d="m349.106 121.912v-24.909c0-7.183 5.823-13.006 13.006-13.006s13.006 5.823 13.006 13.006v24.909l-13.006 13.006z" fill="#ff9e22"/><g fill="#fcd32b"><path d="m270.591 199.948h26.012v26.012h-26.012z"/><path d="m296.603 225.961h26.012v26.012h-26.012z"/><path d="m296.603 277.985h26.012v26.012h-26.012z"/><path d="m349.106 277.985h26.012v26.012h-26.012z"/><path d="m349.106 173.936h26.012v26.012h-26.012z"/><path d="m349.106 121.912h26.012v26.012h-26.012z"/><path d="m349.106 225.961h26.012v26.012h-26.012z"/></g></g></g></svg>